<mxfile host="app.diagrams.net" agent="Mozilla/5.0 (Windows NT 10.0; Win64; x64) AppleWebKit/537.36 (KHTML, like Gecko) Chrome/140.0.0.0 Safari/537.36" version="28.2.5">
  <diagram name="Page-1" id="CtDalFZBM96j40eltmyx">
    <mxGraphModel dx="1281" dy="551" grid="1" gridSize="10" guides="1" tooltips="1" connect="1" arrows="1" fold="1" page="1" pageScale="1" pageWidth="850" pageHeight="1100" math="0" shadow="0">
      <root>
        <mxCell id="0" />
        <mxCell id="1" parent="0" />
        <mxCell id="XMe8Ro1tNMP1rv_7GFuj-3" value="" style="edgeStyle=orthogonalEdgeStyle;rounded=0;orthogonalLoop=1;jettySize=auto;html=1;" edge="1" parent="1" source="XMe8Ro1tNMP1rv_7GFuj-1" target="XMe8Ro1tNMP1rv_7GFuj-2">
          <mxGeometry relative="1" as="geometry" />
        </mxCell>
        <mxCell id="XMe8Ro1tNMP1rv_7GFuj-1" value="START" style="strokeWidth=2;html=1;shape=mxgraph.flowchart.terminator;whiteSpace=wrap;fontSize=14;" vertex="1" parent="1">
          <mxGeometry x="380" y="20" width="105" height="50" as="geometry" />
        </mxCell>
        <mxCell id="XMe8Ro1tNMP1rv_7GFuj-5" value="" style="edgeStyle=orthogonalEdgeStyle;rounded=0;orthogonalLoop=1;jettySize=auto;html=1;" edge="1" parent="1" source="XMe8Ro1tNMP1rv_7GFuj-2" target="XMe8Ro1tNMP1rv_7GFuj-4">
          <mxGeometry relative="1" as="geometry" />
        </mxCell>
        <mxCell id="XMe8Ro1tNMP1rv_7GFuj-2" value="define f(x)&lt;div&gt;define x&lt;/div&gt;&lt;div&gt;define error&lt;/div&gt;" style="verticalLabelPosition=middle;verticalAlign=middle;html=1;shape=hexagon;perimeter=hexagonPerimeter2;arcSize=6;size=0.27;labelPosition=center;align=center;fontSize=14;" vertex="1" parent="1">
          <mxGeometry x="347.5" y="130" width="170" height="80" as="geometry" />
        </mxCell>
        <mxCell id="XMe8Ro1tNMP1rv_7GFuj-7" value="" style="edgeStyle=orthogonalEdgeStyle;rounded=0;orthogonalLoop=1;jettySize=auto;html=1;" edge="1" parent="1" source="XMe8Ro1tNMP1rv_7GFuj-4" target="XMe8Ro1tNMP1rv_7GFuj-6">
          <mxGeometry relative="1" as="geometry" />
        </mxCell>
        <mxCell id="XMe8Ro1tNMP1rv_7GFuj-4" value="define every&lt;div&gt;f(x) = 0 to g(x) = x&lt;/div&gt;" style="verticalLabelPosition=middle;verticalAlign=middle;html=1;shape=hexagon;perimeter=hexagonPerimeter2;arcSize=6;size=0.27;labelPosition=center;align=center;fontSize=14;" vertex="1" parent="1">
          <mxGeometry x="347.5" y="270" width="170" height="80" as="geometry" />
        </mxCell>
        <mxCell id="XMe8Ro1tNMP1rv_7GFuj-6" value="|g&#39;(x)| &amp;lt; 1?" style="strokeWidth=2;html=1;shape=mxgraph.flowchart.decision;whiteSpace=wrap;fontSize=14;" vertex="1" parent="1">
          <mxGeometry x="355.93" y="410" width="153.13" height="140" as="geometry" />
        </mxCell>
      </root>
    </mxGraphModel>
  </diagram>
</mxfile>
